HIERARCHY
ROOT Hips
{
	OFFSET 0.000000 0.000000 0.000000
	CHANNELS 6 Xposition Yposition Zposition Zrotation Yrotation Xrotation 
	JOINT LHipJoint
	{
		OFFSET 0.000000 0.000000 0.000000
		CHANNELS 3 Zrotation Yrotation Xrotation
		JOINT LeftUpLeg
		{
			OFFSET 1.363060 -1.794630 0.839290
			CHANNELS 3 Zrotation Yrotation Xrotation
			JOINT LeftLeg
			{
				OFFSET 2.448110 -6.726130 0.000000
				CHANNELS 3 Zrotation Yrotation Xrotation
				JOINT LeftFoot
				{
					OFFSET 2.562200 -7.039590 0.000000
					CHANNELS 3 Zrotation Yrotation Xrotation
					JOINT LeftToeBase
					{
						OFFSET 0.157640 -0.433110 2.322550
						CHANNELS 3 Zrotation Yrotation Xrotation
						End Site
						{
							OFFSET 0.000000 0.000000 0.000000
						}
					}
				}
			}
		}
	}
	JOINT RHipJoint
	{
		OFFSET 0.000000 0.000000 0.000000
		CHANNELS 3 Zrotation Yrotation Xrotation
		JOINT RightUpLeg
		{
			OFFSET -1.305520 -1.794630 0.839290
			CHANNELS 3 Zrotation Yrotation Xrotation
			JOINT RightLeg
			{
				OFFSET -2.542530 -6.985550 0.000000
				CHANNELS 3 Zrotation Yrotation Xrotation
				JOINT RightFoot
				{
					OFFSET -2.568260 -7.056230 0.000000
					CHANNELS 3 Zrotation Yrotation Xrotation
					JOINT RightToeBase
					{
						OFFSET -0.164730 -0.452590 2.363150
						CHANNELS 3 Zrotation Yrotation Xrotation
						End Site
						{
							OFFSET 0.000000 0.000000 0.000000
						}
					}
				}
			}
		}
	}
	JOINT LowerBack
	{
		OFFSET 0.000000 0.000000 0.000000
		CHANNELS 3 Zrotation Yrotation Xrotation
		JOINT Spine
		{
			OFFSET 0.028270 2.035590 -0.193380
			CHANNELS 3 Zrotation Yrotation Xrotation
			JOINT Spine1
			{
				OFFSET 0.056720 2.048850 -0.042750
				CHANNELS 3 Zrotation Yrotation Xrotation
				JOINT Neck
				{
					OFFSET 0.000000 0.000000 0.000000
					CHANNELS 3 Zrotation Yrotation Xrotation
					JOINT Neck1
					{
						OFFSET -0.054170 1.746240 0.172020
						CHANNELS 3 Zrotation Yrotation Xrotation
						JOINT Head
						{
							OFFSET 0.104070 1.761360 -0.123970
							CHANNELS 3 Zrotation Yrotation Xrotation
							End Site
							{
								OFFSET 0.000000 0.000000 0.000000
							}
						}
					}
				}
				JOINT LeftShoulder
				{
					OFFSET 0.000000 0.000000 0.000000
					CHANNELS 3 Zrotation Yrotation Xrotation
					JOINT LeftArm
					{
						OFFSET 3.362410 1.200890 -0.311210
						CHANNELS 3 Zrotation Yrotation Xrotation
						JOINT LeftForeArm
						{
							OFFSET 4.983000 -0.000000 -0.000000
							CHANNELS 3 Zrotation Yrotation Xrotation
							JOINT LeftHand
							{
								OFFSET 3.483560 -0.000000 -0.000000
								CHANNELS 3 Zrotation Yrotation Xrotation
								JOINT LeftFingerBase
								{
									OFFSET 0.000000 0.000000 0.000000
									CHANNELS 3 Zrotation Yrotation Xrotation
									JOINT LeftHandIndex1
									{
										OFFSET 0.715260 -0.000000 -0.000000
										CHANNELS 3 Zrotation Yrotation Xrotation
										End Site
										{
											OFFSET 0.000000 0.000000 0.000000
										}
									}
								}
								JOINT LThumb
								{
									OFFSET 0.000000 0.000000 0.000000
									CHANNELS 3 Zrotation Yrotation Xrotation
									End Site
									{
										OFFSET 0.000000 0.000000 0.000000
									}
								}
							}
						}
					}
				}
				JOINT RightShoulder
				{
					OFFSET 0.000000 0.000000 0.000000
					CHANNELS 3 Zrotation Yrotation Xrotation
					JOINT RightArm
					{
						OFFSET -3.136600 1.374050 -0.404650
						CHANNELS 3 Zrotation Yrotation Xrotation
						JOINT RightForeArm
						{
							OFFSET -5.241900 -0.000000 -0.000000
							CHANNELS 3 Zrotation Yrotation Xrotation
							JOINT RightHand
							{
								OFFSET -3.444170 -0.000000 -0.000000
								CHANNELS 3 Zrotation Yrotation Xrotation
								JOINT RightFingerBase
								{
									OFFSET 0.000000 0.000000 0.000000
									CHANNELS 3 Zrotation Yrotation Xrotation
									JOINT RightHandIndex1
									{
										OFFSET -0.622530 -0.000000 -0.000000
										CHANNELS 3 Zrotation Yrotation Xrotation
										End Site
										{
											OFFSET 0.000000 0.000000 0.000000
										}
									}
								}
								JOINT RThumb
								{
									OFFSET 0.000000 0.000000 0.000000
									CHANNELS 3 Zrotation Yrotation Xrotation
									End Site
									{
										OFFSET 0.000000 0.000000 0.000000
									}
								}
							}
						}
					}
				}
			}
		}
	}
}
MOTION
Frames: 11
Frame Time: 0.008333
-8.189162 17.866988 0.146419 -131.265232 87.165245 -116.688249 -1.872664 -0.240133 0.253414 -3.922290 -1.905629 -28.341393 0.156274 8.590237 23.386156 0.745404 -1.910283 3.841780 1.487100 -7.704200 -21.819200 5.001802 1.967869 0.160165 3.321997 6.042934 -25.007534 -1.683797 -8.256469 24.325120 1.799499 -10.373730 -3.265702 -0.058900 1.566400 -4.308800 -2.212957 1.603472 3.601060 4.430938 1.976106 7.048448 4.833157 1.138392 0.855050 0.947386 -3.686700 -13.956786 -0.076430 -2.719086 31.809886 -2.261900 0.062800 16.549000 0.228053 5.934714 -1.824645 -111.248660 -21.538119 78.950387 12.274703 -22.077457 -1.385915 0.871664 -0.284129 -41.489367 -156.200543 -58.667468 -20.470200 -7.125000 0.000000 0.000000 160.945700 57.001600 -5.745700 0.385398 -4.342753 -1.431472 103.694461 27.371921 33.541425 -8.901381 17.754622 -1.284195 -0.420737 -0.186135 -30.706747 -14.279427 -8.476433 2.095000 7.125000 0.000000 0.000000 11.241400 -38.550300 1.812900 
-8.188460 17.869796 0.146119 -131.019591 87.177367 -116.434430 -1.878432 -0.240594 0.253857 -3.876703 -2.004771 -28.295088 0.162433 8.601336 23.419366 0.740210 -1.887060 3.834444 1.357800 -7.375800 -20.833700 4.998503 1.964661 0.161931 3.321766 6.038575 -24.988116 -1.673286 -8.236596 24.260703 1.794708 -10.349589 -3.208734 -0.050600 1.451200 -3.991100 -2.222990 1.590214 3.579128 4.424396 1.958632 7.055587 4.834900 1.128219 0.873274 0.927853 -3.682304 -13.966507 -0.076115 -2.702034 31.833962 -2.256100 0.068200 16.566100 0.228847 5.935386 -1.824852 -111.260785 -21.543628 78.927851 12.257210 -22.048222 -1.378794 0.871117 -0.286460 -41.346945 -156.190154 -58.655557 -20.477400 -7.125000 0.000000 0.000000 160.951000 57.011500 -5.748600 0.386833 -4.342787 -1.431167 103.752747 27.396663 33.283108 -8.869785 17.707247 -1.278478 -0.415234 -0.187561 -30.568429 -14.050349 -8.453369 2.052700 7.125000 0.000000 0.000000 11.426300 -38.504900 1.856600 
-8.187758 17.871902 0.146319 -130.875247 87.212063 -116.314007 -1.885477 -0.235177 0.261692 -3.851352 -2.096024 -28.204491 0.166833 8.607501 23.446482 0.748512 -1.937329 3.873173 1.160200 -6.838200 -19.236900 4.998244 1.962634 0.163568 3.311700 6.029967 -24.953050 -1.667266 -8.228330 24.227422 1.798962 -10.371070 -3.198292 -0.058700 1.563700 -4.301300 -2.267319 1.589342 3.584454 4.417805 1.955608 7.080002 4.858434 1.125738 0.880537 0.933577 -3.676241 -13.970206 -0.109003 -2.686625 31.837561 -2.269700 0.070700 16.570800 0.229425 5.933125 -1.824927 -111.302828 -21.542764 78.919836 12.236380 -22.012407 -1.369028 0.870097 -0.288591 -41.197977 -156.216301 -58.720802 -20.466400 -7.125000 0.000000 0.000000 160.938500 56.952500 -5.725100 0.387076 -4.344764 -1.432757 103.753886 27.397675 33.149767 -8.876041 17.724444 -1.282577 -0.411508 -0.192043 -30.489829 -13.871986 -8.516708 2.038300 7.125000 0.000000 0.000000 11.587400 -38.549200 1.870800 
-8.186855 17.870498 0.146520 -131.055778 87.213615 -116.507260 -1.879797 -0.232721 0.262864 -3.874514 -2.050670 -28.221557 0.171501 8.616737 23.475559 0.762249 -2.014139 3.847284 1.117500 -6.715300 -18.874700 5.002627 1.963877 0.166717 3.292017 6.030900 -24.914996 -1.660879 -8.218389 24.194236 1.795598 -10.354161 -3.239038 -0.060200 1.582800 -4.354100 -2.296898 1.586583 3.572894 4.434117 1.949956 7.103794 4.885094 1.123836 0.898745 0.927928 -3.680368 -13.964568 -0.133330 -2.687323 31.822513 -2.279900 0.065400 16.562800 0.227906 5.931305 -1.821653 -111.397394 -21.468573 78.774314 12.220930 -21.982939 -1.363535 0.868200 -0.292529 -41.006784 -156.099303 -58.672869 -20.564100 -7.125000 0.000000 0.000000 161.014600 56.984300 -5.715800 0.385637 -4.344251 -1.435612 103.662090 27.354390 33.502597 -8.940510 17.831667 -1.298719 -0.415319 -0.194596 -30.692973 -14.037612 -8.593446 2.082400 7.125000 0.000000 0.000000 11.466400 -38.639800 1.824700 
-8.186153 17.869997 0.147523 -131.077031 87.140363 -116.506900 -1.872042 -0.234406 0.256784 -3.818905 -2.024098 -28.268550 0.175699 8.623816 23.486187 0.763009 -2.010773 3.773620 1.173800 -6.876800 -19.350900 5.003912 1.963020 0.166098 3.311352 6.135000 -24.869149 -1.656784 -8.211962 24.181085 1.795615 -10.352869 -3.386471 -0.042000 1.322500 -3.636800 -2.203759 1.579180 3.551432 4.402908 1.941725 7.087717 4.817387 1.120286 0.909462 0.985124 -3.700138 -13.928598 -0.123873 -2.740988 31.804081 -2.293500 0.053300 16.540300 0.226656 5.932465 -1.814149 -111.494009 -21.317261 78.424745 12.173742 -21.901861 -1.346542 0.864720 -0.302127 -40.633089 -155.769222 -58.532512 -20.838800 -7.125000 0.000000 0.000000 161.228000 57.076600 -5.690700 0.389652 -4.346729 -1.437199 103.712568 27.344862 33.567978 -8.941516 17.828832 -1.297501 -0.417731 -0.191334 -30.684754 -14.154823 -8.560026 2.094000 7.125000 0.000000 0.000000 11.361800 -38.619000 1.813500 
-8.184548 17.870298 0.148024 -130.870862 87.086455 -116.273254 -1.872206 -0.237512 0.252611 -3.758515 -2.023354 -28.289438 0.176551 8.623621 23.477994 0.757907 -1.973926 3.798963 1.204400 -6.962500 -19.604400 4.997742 1.962588 0.163863 3.370240 6.143420 -24.886610 -1.656509 -8.210852 24.184930 1.792427 -10.337138 -3.461976 -0.032500 1.163900 -3.199900 -2.071854 1.565772 3.520644 4.326131 1.926798 7.062352 4.707403 1.110929 0.922236 1.043214 -3.708486 -13.892734 -0.076631 -2.782084 31.810774 -2.288300 0.053000 16.531600 0.229172 5.935711 -1.810651 -111.507122 -21.246214 78.159546 12.125696 -21.822442 -1.327056 0.861999 -0.309735 -40.400197 -155.500293 -58.506071 -21.080500 -7.125000 0.000000 0.000000 161.407800 57.066000 -5.628800 0.397050 -4.349369 -1.436557 103.879078 27.391377 33.223355 -8.853692 17.675685 -1.272815 -0.416699 -0.185866 -30.271866 -14.055810 -8.512164 2.067500 7.125000 0.000000 0.000000 11.433600 -38.564500 1.840900 
-8.182242 17.870899 0.148526 -130.706322 87.121862 -116.098594 -1.878732 -0.239174 0.255427 -3.789281 -1.991030 -28.295107 0.174979 8.620844 23.473183 0.757425 -1.971084 3.909420 1.179400 -6.892600 -19.397700 4.991082 1.962632 0.163016 3.387509 6.066351 -24.939873 -1.657420 -8.210080 24.184006 1.793790 -10.342739 -3.409046 -0.033800 1.187100 -3.263700 -2.067618 1.551413 3.485096 4.275065 1.906895 7.075434 4.684696 1.098002 0.951729 1.049192 -3.691987 -13.898903 -0.059837 -2.762228 31.818690 -2.279300 0.063900 16.539200 0.232472 5.936806 -1.812201 -111.469574 -21.267108 78.046291 12.130470 -21.829738 -1.327989 0.860129 -0.312932 -40.381430 -155.308370 -58.548881 -21.265800 -7.125000 0.000000 0.000000 161.537900 56.999500 -5.557500 0.400973 -4.351561 -1.436581 104.004406 27.484602 32.741533 -8.744357 17.494084 -1.246324 -0.408988 -0.182198 -29.931872 -13.733682 -8.376277 1.985300 7.125000 0.000000 0.000000 11.671600 -38.400900 1.928100 
-8.179935 17.872203 0.149528 -130.543323 87.174272 -115.945531 -1.888180 -0.238283 0.261586 -3.828386 -1.977670 -28.274427 0.173756 8.619184 23.472433 0.752699 -1.949716 3.900439 1.146800 -6.800000 -19.124200 4.988088 1.959041 0.163687 3.371633 6.071980 -24.932494 -1.658393 -8.210585 24.180669 1.809955 -10.421010 -3.319679 -0.045100 1.371200 -3.770800 -2.117741 1.551760 3.464779 4.248506 1.904982 7.116844 4.704490 1.094632 0.982987 1.047173 -3.676932 -13.924497 -0.075663 -2.739095 31.801622 -2.283700 0.068300 16.539200 0.234460 5.935867 -1.814337 -111.462386 -21.305414 78.008417 12.145812 -21.853955 -1.333952 0.857906 -0.315705 -40.406395 -155.067230 -58.572126 -21.492400 -7.125000 0.000000 0.000000 161.699700 56.945000 -5.482200 0.402563 -4.355099 -1.438843 104.083311 27.612967 32.127296 -8.653907 17.358272 -1.230381 -0.392160 -0.183812 -29.903627 -13.143124 -8.141700 1.841200 7.125000 0.000000 0.000000 12.109400 -38.113400 2.090000 
-8.178531 17.871902 0.150030 -130.188861 87.170533 -115.610963 -1.895015 -0.237762 0.265482 -3.798267 -1.992064 -28.236898 0.173755 8.615681 23.463676 0.748900 -1.928713 3.776080 1.138900 -6.777400 -19.057400 4.984490 1.953400 0.166008 3.398793 6.091767 -24.901894 -1.659279 -8.213111 24.182168 1.819089 -10.467428 -3.241201 -0.062400 1.611400 -4.433000 -2.121745 1.548856 3.460714 4.257084 1.900764 7.154751 4.710542 1.092311 1.006228 1.053154 -3.655288 -13.945064 -0.103855 -2.702961 31.798492 -2.292900 0.078900 16.546300 0.235131 5.933100 -1.815313 -111.511439 -21.350009 77.950414 12.121663 -21.813741 -1.324257 0.859162 -0.314965 -40.356694 -155.172403 -58.520920 -21.384900 -7.125000 0.000000 0.000000 161.629100 57.008000 -5.532600 0.402125 -4.358205 -1.441692 104.100761 27.680265 31.873689 -8.626808 17.324546 -1.228286 -0.382305 -0.188705 -29.973034 -12.777593 -8.076549 1.771400 7.125000 0.000000 0.000000 12.396400 -38.014000 2.172300 
-8.177528 17.871301 0.151434 -129.463431 87.134965 -114.896398 -1.900576 -0.241314 0.266663 -3.722916 -1.981358 -28.212349 0.176113 8.611824 23.454790 0.749750 -1.925546 3.733512 1.140600 -6.782100 -19.071400 4.974874 1.945757 0.168484 3.476768 6.079989 -24.897939 -1.657345 -8.212087 24.176006 1.813582 -10.443984 -3.227866 -0.065500 1.651300 -4.543000 -2.107377 1.533140 3.455103 4.296500 1.882349 7.176031 4.714348 1.083154 1.024113 1.020354 -3.636603 -13.976923 -0.101017 -2.656493 31.846596 -2.279400 0.095800 16.583700 0.234895 5.931818 -1.816190 -111.577974 -21.383377 77.835714 12.085729 -21.751880 -1.307659 0.863008 -0.311120 -40.167382 -155.714647 -58.532764 -20.889300 -7.125000 0.000000 0.000000 161.265900 57.067700 -5.674600 0.399986 -4.355825 -1.442033 104.068896 27.633038 32.198558 -8.680951 17.412608 -1.240229 -0.388643 -0.191625 -29.969079 -12.962348 -8.247964 1.835600 7.125000 0.000000 0.000000 12.281400 -38.198700 2.094600 
-8.176626 17.871000 0.153540 -129.101260 87.125898 -114.519121 -1.899879 -0.245589 0.264557 -3.692306 -1.972941 -28.223106 0.178756 8.612972 23.459350 0.745653 -1.902145 3.721679 1.180000 -6.894300 -19.402700 4.972154 1.941381 0.170475 3.510499 6.071632 -24.918788 -1.654781 -8.207012 24.159787 1.811369 -10.434214 -3.202609 -0.068300 1.686200 -4.639300 -2.199870 1.522450 3.416498 4.396453 1.868679 7.195547 4.806634 1.077122 1.056841 0.950987 -3.626568 -14.035380 -0.136604 -2.602303 31.897100 -2.275600 0.105000 16.630700 0.230586 5.929916 -1.816662 -111.704015 -21.402729 77.742924 12.062068 -21.704816 -1.294412 0.863277 -0.309865 -39.977225 -156.061512 -58.688657 -20.602500 -7.125000 0.000000 0.000000 161.040400 56.963200 -5.697900 0.392681 -4.351639 -1.442364 103.959162 27.588583 32.521023 -8.743840 17.517643 -1.255137 -0.394111 -0.195250 -29.982390 -13.126893 -8.416037 1.897000 7.125000 0.000000 0.000000 12.181900 -38.378300 2.022300 
